<svg version="1.1" id="Layer_1" xmlns="http://www.w3.org/2000/svg" x="0" y="0" viewBox="0 0 1275 1280" xml:space="preserve"><style>.st0{fill:#e65661;cursor:pointer}</style><path class="st0" d="M3925 12684c-104-63-196-118-204-123-11-7 1-25 50-82 157-180 353-533 584-1054 104-234 275-653 275-674 0-6 4-11 10-11 25 0 420 206 420 219 0 8-38 104-84 215-247 592-562 1222-737 1476-53 76-114 152-121 149-2 0-88-52-193-115zM8266 12648c-83-445-321-1225-491-1610l-43-98 216-110c118-60 219-110 222-110 12 0 113 282 212 590 109 340 358 1233 347 1245-7 6-430 185-438 185-4 0-15-42-25-92zM247 10067L1 9896l92-49c51-27 132-78 182-113 207-147 320-217 485-306 251-135 669-362 780-424 53-29 154-93 225-143s132-91 135-91c8 0 355 349 350 352-3 2-31 17-64 33-32 17-73 47-90 69-78 96-98 114-188 160-51 27-185 101-298 164-113 64-302 166-422 228-228 118-314 172-456 283-48 37-121 93-163 124l-76 56-246-172zM5830 9490c-547-53-1022-212-1525-513-540-323-915-691-1064-1045-57-134-70-195-82-411-19-330 6-667 77-1021 100-503 259-990 626-1920 176-446 208-589 182-828-29-269-70-449-129-563-18-33-9-37 35-14 50 26 34 9-42-44-43-31-66-52-57-55 8-3 49-12 92-22 42-10 77-20 77-23s-117-64-260-136c-143-71-260-132-260-134 0-21 79-141 130-194 101-107 301-239 427-281l63-21-240-174c-132-96-240-176-240-177s30-12 68-25c37-12 154-59 261-105l194-82-202-101c-110-56-201-107-201-114 0-25 75-138 138-207 70-77 159-152 302-254 159-113 295-169 495-201 108-18 518-37 625-29l75 5-210-108-210-108-7-150c-3-83-13-208-22-280s-16-136-16-142c0-7 132 53 294 134 290 145 294 147 300 181 3 19 15 139 28 266l22 233 113 27c97 22 145 42 342 140 125 62 255 131 288 154 78 53 155 138 188 209 25 52 62 219 52 229-3 3-134-62-293-145-278-144-290-151-304-188-8-21-18-43-22-49-12-19-151-23-438-14-447 15-570 53-859 271-73 55-184 159-177 166 2 3 87-7 187-22 206-29 521-58 834-76 187-10 220-10 300 5 283 53 546 199 681 379 43 58 109 175 102 182-2 2-91-39-198-92l-195-95-295 6c-378 7-577 26-950 92-112 20-170 36-255 72-143 60-277 125-244 118 185-39 524-70 764-70 210 0 321 10 575 50 268 43 238 29 532 255 143 109 256 199 251 199s-29-7-54-14c-59-20-277-62-419-81-164-23-498-30-672-16-371 32-778 111-910 177-74 37-216 127-253 161-33 30-105 115-105 124 0 5 21 0 48-11 26-10 124-50 217-89 315-129 497-168 975-206 102-8 205-19 230-25 69-14 254-12 358 5l92 15 228 181c161 129 252 194 314 225 64 32 89 50 92 67 22 104 30 240 36 607 8 429 13 496 52 625 47 159 183 369 471 725 106 131 390 410 622 611 146 126 367 344 498 493 189 212 411 509 485 646 158 292 259 702 291 1180 16 242-48 489-183 694-135 206-260 298-584 427-451 180-934 282-1567 329-191 14-868 21-985 10zM12634 9380c-12-5-223-58-470-120-781-193-1065-285-1366-442l-117-61 86-171c47-94 87-173 88-174 2-2 130 39 285 92 377 129 677 219 1319 396 156 44 285 81 287 83s-12 91-31 198-35 197-35 202c0 9-19 8-46-3z" transform="matrix(.1 0 0 -.1 0 1280)"/></svg>